<svg xmlns="http://www.w3.org/2000/svg" width="100.235" height="23.142" viewBox="0 0 100.235 23.142"><path fill="#1D3764" d="M33.27 3.87h-2.947v3.14c0 .107-.087.194-.192.194h-.488c-.106 0-.192-.087-.192-.193V1.787C29.45.51 30.15 0 31.495 0c.566 0 1.47.02 1.873.06.057.007.096.075.096.133v.48c0 .067-.04.115-.105.115h-1.855c-1.017 0-1.18.27-1.18.998v1.336h2.948c.105 0 .19.086.19.19v.365c0 .107-.087.194-.192.194M35.536 7.203h-.527c-.1 0-.174-.087-.174-.19V.25c0-.097.066-.183.173-.183h.526c.097 0 .174.077.174.184v6.762c0 .095-.068.19-.174.19"/><path fill="#4DC4D3" d="M42.62 7.27c-.5 0-.96-.047-1.508-.238-.547.19-1 .238-1.498.238-1.46 0-2.036-.95-2.036-2.62V.25c0-.096.076-.183.182-.183h.51c.097 0 .183.087.183.183v4.398c0 1.297.26 1.884 1.345 1.884.163 0 .673-.03.884-.088V.25c0-.096.076-.183.182-.183h.52c.104 0 .174.067.174.173v6.204c.21.058.72.088.882.088 1.085 0 1.345-.587 1.345-1.884V.25c0-.096.077-.183.183-.183h.51c.095 0 .182.087.182.183v4.398c-.004 1.672-.58 2.622-2.04 2.622M49.966 1.987c0-.998-.316-1.22-1.19-1.22h-.558c-.874 0-1.19.222-1.19 1.22V3.4h2.938V1.986zm.702 5.216h-.528c-.096 0-.174-.087-.174-.19V4.167h-2.94v2.844c0 .096-.064.19-.17.19h-.528c-.098 0-.174-.095-.174-.19V1.987C46.154.52 46.836 0 48.218 0h.558c1.373 0 2.064.52 2.064 1.987V7.01c0 .097-.076.193-.172.193M56.083 2.064c0-.96-.624-1.277-1.825-1.277-.298 0-.825 0-1.056.03v2.63c.423.01.836.02 1.056.02 1.183 0 1.825-.297 1.825-1.334v-.07zm1.007 5.14h-.614c-.114 0-.17 0-.25-.125L54.51 4.216h-.25c-.316 0-.547-.01-1.056-.03v2.825c0 .096-.068.19-.173.19h-.52c-.097 0-.173-.086-.173-.19V.288c0-.135.058-.192.23-.21.414-.05 1.135-.078 1.69-.078 1.52 0 2.69.51 2.69 2.064v.068c0 1.076-.634 1.71-1.507 1.94l1.745 2.92c.02.027.03.058.03.086 0 .068-.05.125-.125.125M62.254 7.223c-.365.038-1.306.047-1.873.047-1.343 0-2.044-.508-2.044-1.785v-3.7C58.336.51 59.036 0 60.38 0c.568 0 1.47.02 1.874.06.057.008.096.075.096.134v.48c0 .066-.04.114-.104.114H60.39c-1.018 0-1.18.27-1.18.998v1.336h2.948c.104 0 .19.086.19.19v.365c0 .106-.086.193-.19.193h-2.95v1.613c0 .73.164.998 1.182.998h1.855c.065 0 .104.05.104.117v.49c0 .06-.04.126-.096.136"/><path fill="#79C8A6" d="M36.335 23.03h-.87c-.16 0-.286-.143-.286-.316v-4.69H30.33v4.69c0 .16-.11.317-.286.317h-.87c-.16 0-.286-.157-.286-.316V14.43c0-2.425 1.125-3.28 3.406-3.28h.92c2.264 0 3.404.855 3.404 3.28v8.284c0 .16-.126.317-.285.317m-1.156-8.6c0-1.647-.523-2.013-1.965-2.013h-.92c-1.44 0-1.963.365-1.963 2.012v2.327h4.847V14.43zM44.002 22.968c-.522.095-1.236.174-1.98.174-2.154 0-3.374-1.52-3.374-3.85v-1.235c0-2.33 1.203-3.85 3.375-3.85.73 0 1.457.08 1.98.174.252.05.316.13.316.35v.57c0 .16-.128.238-.272.238h-.063c-.697-.08-1.188-.11-1.964-.11-1.268 0-1.98.84-1.98 2.63v1.235c0 1.773.697 2.63 1.98 2.63.776 0 1.268-.032 1.965-.112h.063c.144 0 .27.08.27.24v.568c0 .206-.063.303-.316.35M51.163 22.968c-.523.095-1.237.174-1.982.174-2.152 0-3.372-1.52-3.372-3.85v-1.235c0-2.33 1.204-3.85 3.373-3.85.73 0 1.46.08 1.983.174.253.05.315.13.315.35v.57c0 .16-.127.238-.27.238h-.062c-.696-.08-1.188-.11-1.966-.11-1.266 0-1.98.84-1.98 2.63v1.235c0 1.773.697 2.63 1.98 2.63.777 0 1.27-.032 1.966-.112h.063c.14 0 .268.08.268.24v.568c0 .206-.062.303-.315.35M59.668 19.118H54.36v.222c0 1.886.746 2.582 2.203 2.582.92 0 2.09-.063 2.82-.175h.078c.128 0 .255.064.255.223v.538c0 .206-.063.316-.316.364-.904.174-1.775.27-2.837.27-1.82 0-3.595-.855-3.595-3.802v-1.426c0-2.266 1.25-3.707 3.516-3.707 2.313 0 3.485 1.457 3.485 3.707v.855c0 .206-.112.348-.302.348m-1.108-1.204c0-1.79-.682-2.487-2.075-2.487-1.362 0-2.123.776-2.123 2.487v.142h4.198v-.142zM63.137 23.03h-.823c-.16 0-.286-.143-.286-.316V11.42c0-.16.112-.302.286-.302h.823c.16 0 .286.127.286.3v11.296c0 .158-.112.317-.286.317M72.15 19.118h-5.307v.222c0 1.886.745 2.582 2.202 2.582.92 0 2.09-.063 2.82-.175h.078c.127 0 .255.064.255.223v.538c0 .206-.065.316-.317.364-.902.174-1.774.27-2.835.27-1.822 0-3.596-.855-3.596-3.802v-1.426c0-2.266 1.25-3.707 3.515-3.707 2.313 0 3.486 1.457 3.486 3.707v.855c.002.206-.11.348-.3.348m-1.108-1.204c0-1.79-.682-2.487-2.076-2.487-1.362 0-2.122.776-2.122 2.487v.142h4.198v-.142zM77.948 15.427c-1.078 0-1.6.032-2.202.16v7.127c0 .158-.11.317-.286.317h-.822c-.16 0-.285-.143-.285-.316v-7.7c0-.173.11-.283.285-.362.9-.397 1.996-.444 3.31-.444.207 0 .333.016.333.238v.728c0 .173-.03.253-.332.253M85.63 22.777c-.84.205-1.948.364-2.914.364-2.36 0-3.454-1.536-3.454-3.912V18.12c0-2.377 1.078-3.913 3.454-3.913.95 0 2.074.158 2.915.363.285.064.333.144.333.365v7.477c0 .206-.048.302-.332.365m-1.06-7.24c-.43-.078-1.19-.158-1.855-.158-1.568 0-2.06 1.06-2.06 2.74v1.108c0 1.664.49 2.74 2.06 2.74.666 0 1.41-.078 1.854-.158v-6.273zM91.98 23.047c-.3.048-.948.095-1.52.095-1.49 0-2.344-.49-2.344-2.202v-8.174c0-.158.143-.27.316-.3l.776-.128h.032c.157 0 .27.143.27.3v1.68h2.47c.176 0 .303.11.303.286v.538c0 .16-.127.285-.303.285h-2.47v5.513c0 .92.3 1.077 1.172 1.077h1.283c.22 0 .332.063.332.222v.538c.002.143-.077.237-.316.27M99.934 19.118h-5.307v.222c0 1.886.745 2.582 2.202 2.582.918 0 2.09-.063 2.82-.175h.077c.128 0 .255.064.255.223v.538c0 .206-.064.316-.317.364-.903.174-1.774.27-2.836.27-1.823 0-3.597-.855-3.597-3.802v-1.426c0-2.266 1.252-3.707 3.517-3.707 2.313 0 3.485 1.457 3.485 3.707v.855c0 .206-.11.348-.3.348m-1.11-1.204c0-1.79-.682-2.487-2.075-2.487-1.362 0-2.123.776-2.123 2.487v.142h4.198v-.142zM16.007 12.443H.937c-.517 0-.937-.42-.937-.94 0-.517.42-.938.938-.938h15.068c.518 0 .94.42.94.938 0 .52-.422.94-.94.94M13.22 16.198H3.38c-.52 0-.938-.42-.938-.94 0-.517.42-.938.938-.938h9.84c.517 0 .937.422.937.94 0 .517-.42.938-.938.938M13.22 8.688H3.38c-.52 0-.938-.42-.938-.94 0-.516.42-.937.938-.937h9.84c.517 0 .937.422.937.94 0 .52-.42.938-.938.938"/><path fill="#79C8A6" d="M21.373 4.58c3.794 2.543 4.807 7.683 2.267 11.474-2.544 3.796-7.68 4.808-11.472 2.266-3.792-2.54-4.81-7.678-2.266-11.47 2.54-3.795 7.68-4.81 11.47-2.27"/><path fill="#FFF" d="M16.945 11.503c0-.518-.42-.938-.938-.938H8.55c-.066.627-.062 1.257.015 1.878h7.442c.518 0 .938-.42.938-.94M13.22 14.32H9.017c.244.66.573 1.292.983 1.878h3.22c.517 0 .937-.42.937-.938 0-.52-.42-.94-.938-.94M13.22 8.688c.517 0 .937-.42.937-.94 0-.516-.42-.937-.938-.937H9.93c-.01.013-.02.025-.03.04-.39.585-.7 1.202-.925 1.838h4.244z"/></svg>