<svg xmlns="http://www.w3.org/2000/svg" width="83.696" height="57.952" viewBox="0 0 83.696 57.952"><path fill="#BDBEC0" d="M0 15.227s24.797-3.208 25.498-3.323c1.073-.175 2.026-.38 2.915-.626 2.006-.55 3.852-1.388 5.487-2.492 1.567-1.05 3.024-2.58 4.47-4.257.918-1.068 1.883-2.46 2.783-3.803v-.65c-1.068 1.582-2.12 2.944-3.202 4.147-1.432 1.596-2.936 2.9-4.47 3.88-1.582 1.02-3.363 1.78-5.293 2.262-.865.218-1.79.396-2.833.54-.686.096-1.393.17-2.078.242C23.003 11.178 0 13.616 0 13.616v1.61z"/><path fill="#BDBEC0" d="M33.255 11.068c-1.552.894-3.345 1.547-5.328 1.942-.847.17-1.77.31-2.823.424-.618.067-1.24.12-1.865.175-.338.028-.674.058-1.01.09-7.6.68-15.16 1.404-22.23 2.092V17.4c7.127-.86 14.74-1.77 22.336-2.63.338-.04.676-.077 1.014-.113.622-.07 1.245-.138 1.87-.22 1.08-.144 2.027-.31 2.892-.506 2.06-.46 3.922-1.187 5.53-2.16 1.598-.96 3.01-2.303 4.53-3.945.945-1.022 1.997-2.466 2.982-3.82v-.59c-1.16 1.572-2.26 2.894-3.35 4.02-1.482 1.538-3.013 2.758-4.55 3.633"/><path fill="#BDBEC0" d="M37.595 10.675c-1.513 1.388-3.093 2.48-4.696 3.244-1.568.755-3.322 1.286-5.363 1.62-.843.14-1.76.255-2.8.35L0 17.92v1.605l21.99-2.333 2.844-.3c1.07-.123 2.006-.262 2.857-.424 2.115-.4 3.93-.995 5.545-1.822 1.652-.836 3.302-2.225 4.837-3.697 1.03-.987 2.02-2.262 3.08-3.6v-.534c-1.222 1.522-2.39 2.79-3.557 3.86"/><path fill="#BDBEC0" d="M31.613 19.01c-1.44.806-2.517 1.27-4.573 1.483-1.243.135-2.52.198-3.757.26-.598.03-1.197.06-1.794.098-3.738.214-7.408.45-11.152.695L0 22.24v1.605l10.44-.958c3.373-.302 7.294-.65 11.12-.964l2.783-.215c1.086-.084 1.976-.173 2.8-.28 2.117-.273 3.925-.7 5.527-1.305 1.725-.646 3.35-1.647 4.98-2.824 1.468-1.063 3.5-3.155 3.502-3.184v-.566c-1.33 1.297-2.094 2.024-3.548 2.982-1.736 1.147-4.7 1.756-5.99 2.478"/><path fill="#BDBEC0" d="M32.14 22.06c-1.56.457-3.318.768-5.37.946-.832.073-1.73.128-2.743.17l-2.767.12c-6.876.32-13.718.677-21.26 1.076v1.6c7.204-.557 14.264-1.1 21.32-1.602l2.76-.188c1.065-.07 1.948-.146 2.778-.24 2.105-.234 3.905-.598 5.502-1.108 1.77-.562 3.497-1.374 5.13-2.417 1.206-.77 2.412-1.684 3.663-2.775v-.028c-1.38 1.178-2.693 1.438-4.003 2.23-1.604.97-3.29 1.716-5.01 2.216"/><path fill="#BDBEC0" d="M31.884 24.72c-1.572.366-3.275.603-5.36.742-.806.054-1.67.095-2.724.127l-2.74.097c-6.905.26-13.906.56-21.06.872v1.6c7.107-.485 14.08-.957 21.113-1.397l2.734-.164c1.072-.062 1.945-.124 2.748-.197 2.125-.196 3.863-.48 5.47-.897 1.804-.465 3.557-1.146 5.21-2.024 1.28-.678 2.556-1.493 3.878-2.475v-.684c-1.43 1.03-2.8 1.873-4.17 2.56-1.625.81-3.34 1.428-5.1 1.836"/><path fill="#BDBEC0" d="M31.65 27.326c-1.577.29-3.276.473-5.346.58-.78.04-1.612.07-2.703.094L0 28.64v1.598l20.928-1.092 2.71-.138c1.06-.05 1.925-.1 2.725-.163 2.1-.16 3.825-.39 5.433-.728 1.826-.378 3.597-.932 5.265-1.643 1.345-.57 2.69-1.265 4.093-2.11v-.642c-1.498.87-2.922 1.57-4.336 2.13-1.645.654-3.383 1.15-5.167 1.474"/><path fill="#BDBEC0" d="M31.464 29.944c-2.896.387-5.877.432-8.76.474-.66.01-1.322.02-1.982.034L0 30.824v1.598l20.758-.896c.658-.03 1.317-.056 1.977-.082 2.903-.116 5.906-.235 8.84-.7 1.86-.295 3.647-.728 5.315-1.29 1.382-.46 2.813-1.06 4.263-1.768v-.613c-1.524.71-3.022 1.3-4.46 1.74-1.65.51-3.41.892-5.23 1.13M31.3 32.58c-2.713.224-5.49.224-8.176.224-.836 0-1.67 0-2.506.008-6.865.03-13.676.085-20.617.146v1.598c6.612-.226 13.627-.46 20.64-.667.833-.03 1.666-.05 2.5-.072 2.7-.067 5.493-.138 8.234-.436 1.915-.204 3.657-.506 5.327-.92 1.457-.356 2.952-.834 4.454-1.407v-.588c-1.55.558-3.095 1.012-4.6 1.343-1.653.362-3.372.615-5.254.77M31.195 35.177c-1.13.045-2.355.066-3.743.066-.525 0-1.05-.003-1.573-.008l-5.342-.065c-3.644-.027-7.275-.033-10.68-.036L0 35.144v1.597l9.88-.26c3.395-.083 7.036-.168 10.67-.233l5.335-.07c1.464-.023 3.396-.066 5.352-.195 1.918-.125 3.663-.314 5.335-.583 1.505-.24 3.043-.564 4.582-.956v-.567c-1.58.364-3.152.655-4.676.86-1.663.22-3.39.365-5.283.44M25.817 37.687l-5.323-.057c-6.79-.097-13.574-.22-20.494-.35v1.598c6.606-.043 13.602-.095 20.5-.17l5.325-.08c1.794-.03 3.552-.064 5.33-.123 3.658-.117 6.936-.375 10-.78v-.555c-3.076.33-6.36.505-10.02.528-1.772.016-3.545.003-5.318-.01M41.154 40.51L0 39.468v1.596h41.154M37.448 13.69c-1.563 1.257-2.77 2.148-4.684 2.908-1.666.662-3.456.934-5.5 1.212-1.316.185-2.692.457-4.005.545-.54.036-1.082.072-1.62.114L0 20.046v1.602l21.727-2.107 2.816-.265c1.045-.098 1.973-.213 2.836-.353 2.104-.338 3.92-.854 5.545-1.578 1.687-.744 3.394-1.962 4.98-3.297 1.08-.907 2.118-2.047 3.25-3.293v-.574c-1.368 1.413-2.5 2.542-3.707 3.507"/><path fill="#FFF" d="M17.105 40.337h36.048v16.03H17.105z"/><path fill="#0751A0" d="M17.105 16.943H53.16v24.12H17.105z"/><path fill="#FCEE23" d="M35.524 20.373h1.255l-1.012.788.392 1.25-1.007-.77-1.007.77.397-1.25-1.02-.787h1.25l.38-1.22M35.568 36.458h1.256l-1.01.76.392 1.2-1.007-.74-1.008.74.397-1.2-1.023-.76h1.253l.38-1.172M39.547 35.393h1.256l-1.01.756.392 1.203-1.007-.743-1.007.743.398-1.204-1.02-.757h1.25l.38-1.173M39.547 21.446h1.256l-1.01.758.392 1.203-1.007-.74-1.007.74.398-1.203-1.02-.758h1.25l.38-1.173M42.5 24.4h1.255l-1.01.757.392 1.203-1.007-.74-1.005.74.397-1.203L40.5 24.4h1.25l.38-1.173M42.5 32.48h1.255l-1.01.76.392 1.2-1.007-.74-1.005.74.397-1.2-1.022-.76h1.25l.38-1.174M43.607 28.378h1.257l-1.01.758.39 1.203-1.005-.743-1.01.742.398-1.204-1.02-.758h1.25l.38-1.172M31.468 21.456h1.254l-1.012.76.394 1.202-1.007-.742-1.008.742.396-1.203-1.018-.76h1.25l.38-1.172M28.596 24.41h1.256l-1.01.758.39 1.202-1.005-.74-1.007.74.396-1.202-1.02-.76h1.252l.38-1.172M27.53 28.388h1.256l-1.013.758.394 1.203-1.007-.742-1.008.74.398-1.202-1.02-.758h1.25l.38-1.172M28.596 32.488h1.256l-1.01.76.39 1.202-1.005-.74-1.007.74.396-1.2-1.02-.762h1.252l.38-1.17M31.51 35.402h1.254l-1.012.758.392 1.203-1.005-.742-1.01.743.398-1.203-1.02-.758h1.25l.38-1.173"/><path fill="#0751A0" d="M17.105 55.894h36.058v2.06H17.105z"/><path fill="#BDBEC0" d="M58.29 0s7.52 11.707 8.895 13.86c1.373 2.15 2.945 3.853 8.507 5.01 5.563 1.155 7.983 1.7 7.983 1.7v.42s-3.533-.74-8.082-1.736c-4.547-.995-6.406-1.33-8.48-4.158-1.725-2.353-8.82-12.354-8.82-12.354V0z"/><path fill="#BDBEC0" d="M58.29 3.33s7.77 11.13 8.8 12.493c1.03 1.362 2.42 3.563 8.56 4.86 1.587.335 8.047 1.605 8.047 1.605v.352s-4.91-.945-8.046-1.605c-3.137-.66-6.434-1.262-8.536-3.915-1.91-2.41-8.837-11.298-8.837-11.298l.014-2.493z"/><path fill="#BDBEC0" d="M58.29 6.672s7.32 9.458 8.8 11.35c1.48 1.892 3.52 3.454 8.56 4.422 2.908.558 8.023 1.496 8.023 1.496v.35s-4.48-.834-8.022-1.472c-3.54-.638-6.463-1.255-8.56-3.608-1.837-2.063-8.813-10.176-8.813-10.176l.014-2.362z"/><path fill="#BDBEC0" d="M58.276 9.957s7.41 8.58 8.836 10.11c2.22 2.384 3.295 3.205 8.54 4.2 2.097.4 8.02 1.432 8.02 1.432v.373s-4.907-.88-8.02-1.43c-3.116-.55-5.753-.756-8.562-3.454-2.14-2.058-8.8-9.02-8.8-9.02l-.014-2.213z"/><path fill="#BDBEC0" d="M58.29 13.374s6.844 7.028 8.823 9.048c2.1 2.14 4.788 2.932 8.515 3.585 3.56.622 8.045 1.34 8.045 1.34v.397s-4.213-.677-8.045-1.32c-3.757-.63-6.386-.982-8.537-2.925-1.926-1.74-8.8-8.06-8.8-8.06v-2.066z"/><path fill="#BDBEC0" d="M58.29 16.54s6.51 5.925 8.823 7.95c2.13 1.86 3.854 2.44 8.537 3.254 4.684.813 8.022 1.32 8.022 1.32v.418s-4.235-.683-8.045-1.276-6.236-.83-8.515-2.64c-2.63-2.09-8.822-7.09-8.822-7.09V16.54z"/><path fill="#BDBEC0" d="M58.276 19.93s7.426 5.77 8.814 6.78c1.39 1.012 3.227 2.192 8.56 2.947 5.29.75 8 1.122 8 1.122v.44s-4.795-.684-8-1.08c-3.204-.395-5.66-.563-8.538-2.44-2.8-1.828-8.82-5.982-8.82-5.982l-.016-1.79z"/><path fill="#BDBEC0" d="M58.276 23.17s7.447 4.86 8.86 5.63c1.41.77 3.07 2.023 8.514 2.705 5.446.682 8 .99 8 .99v.418s-4.504-.484-8.022-.858-5.916-.88-8.537-2.287c-2.622-1.407-8.798-4.94-8.798-4.94l-.016-1.66z"/><path fill="#BDBEC0" d="M58.29 26.41s6.592 3.514 8.823 4.61c2.487 1.226 4.64 1.812 8.537 2.267 3.83.446 8.022.88 8.022.88v.396s-3.877-.406-8.022-.792c-4.108-.38-5.57-.556-8.537-1.846-2.653-1.154-8.837-3.974-8.837-3.974l.015-1.54z"/><path fill="#BDBEC0" d="M58.29 29.71s5.186 2.175 8.846 3.6c3.6 1.4 6.35 1.518 8.537 1.76.965.105 7.978.813 7.978.813v.396s-4.19-.33-8-.66-5.45-.47-8.536-1.475c-3.122-1.016-8.837-2.97-8.837-2.97l.014-1.466zM58.29 33.053s5.26 1.598 8.846 2.52 6.88 1.3 8.537 1.41 7.978.614 7.978.614v.375s-3.582-.242-8-.55c-3.57-.25-6.437-.514-8.536-.97-2.327-.503-8.837-2.022-8.837-2.022l.014-1.377zM58.276 36.352s4.315.73 8.858 1.466c3.407.554 8.022.902 8.517.925.493.02 8.022.527 8.022.527v.396s-4.818-.245-8.02-.418c-3.34-.182-6.655-.38-8.54-.572-4.22-.432-8.836-1.004-8.836-1.004v-1.32zM58.29 39.768s6.784.25 8.846.294 16.537.616 16.537.616v.396l-25.382-.016v-1.29z"/><path fill="#646567" d="M19.213 43.44c0-.075.034-.114.114-.114h2.093c.068 0 .108.04.108.108v.352c0 .068-.03.103-.114.103H19.86v.978h1.378c.074 0 .113.034.113.103v.353c0 .07-.027.103-.112.103H19.86v1.12h1.594c.068 0 .102.035.102.108V47c0 .075-.028.105-.108.105h-2.12c-.08 0-.115-.034-.115-.104v-3.56zM24.194 47.102h-.404c-.085 0-.108-.04-.108-.107v-.176l-.01-.008c-.223.154-.61.342-.957.342-.767 0-.84-.455-.84-1.053v-1.67c0-.068.027-.113.107-.113h.415c.074 0 .102.04.102.112v1.598c0 .342.067.557.414.557.245 0 .62-.182.768-.256v-1.9c0-.067.023-.112.108-.112h.404c.08 0 .108.04.108.112v2.565c0 .073-.028.107-.108.107M25.41 46.994c0 .067-.028.107-.108.107h-.41c-.08 0-.108-.032-.108-.106V44.43c0-.075.03-.114.11-.114h.402c.086 0 .114.046.114.113v.25l.01.01c.172-.158.576-.352.843-.402.074-.018.125 0 .137.097l.04.38c.005.08.01.114-.11.138-.317.063-.72.176-.92.262v1.83zM27.804 44.805c-.484 0-.592.307-.592.898 0 .603.108.898.586.898.517 0 .62-.29.62-.897 0-.603-.097-.898-.614-.898m-.006 2.342c-1.143 0-1.217-.836-1.217-1.484 0-.534.12-1.404 1.218-1.404 1.103 0 1.257.732 1.257 1.403 0 .65-.08 1.484-1.257 1.484M30.755 44.838c-.234 0-.592.165-.762.257v1.42c.255.075.46.1.653.1.41 0 .552-.212.552-.928 0-.724-.142-.85-.443-.85m-.046 2.316c-.19 0-.45-.034-.712-.125l-.005.006v1c0 .063-.018.114-.11.114h-.402c-.09 0-.107-.04-.107-.113V44.43c0-.074.028-.114.108-.114h.404c.08 0 .103.046.103.113v.17l.017.012c.205-.143.57-.34.898-.34.745 0 .938.56.938 1.42 0 .927-.232 1.46-1.13 1.46M32.824 45.452h1.126c0-.347-.09-.682-.563-.682-.42 0-.535.256-.563.682m-.006.427c.017.573.222.732.688.732.205 0 .524-.04.74-.063.102-.012.136-.012.153.097l.033.187c.017.086.006.13-.096.178-.222.085-.637.142-.916.142-1.085 0-1.244-.694-1.244-1.433 0-.552.102-1.46 1.21-1.46 1.02 0 1.2.658 1.218 1.272.006.205-.05.347-.28.347H32.82zM36.617 45.834h-.694c-.284 0-.467.102-.467.477 0 .252.086.332.353.332.244 0 .59-.143.807-.268v-.54zm.033.944c-.285.216-.666.37-1.046.37-.603 0-.78-.33-.78-.81-.005-.665.353-.95 1.07-.95h.727v-.146c0-.34-.124-.46-.59-.46-.188 0-.546.027-.774.05-.113.018-.142.012-.16-.067l-.05-.21c-.01-.075.006-.12.13-.17.246-.087.695-.127.962-.127.984 0 1.103.404 1.103 1.04v1.1c0 .232.03.238.206.262.085.005.108.02.108.085v.238c0 .063-.04.103-.136.12-.09.017-.182.027-.268.027-.267 0-.432-.08-.49-.346l-.01-.006zM40.033 47.102h-.41c-.074 0-.107-.033-.107-.107l.005-1.6c0-.335-.078-.556-.408-.556-.228 0-.626.18-.78.255v1.9c0 .066-.028.106-.108.106h-.403c-.08 0-.107-.032-.107-.106V44.43c0-.074.028-.113.108-.113h.404c.08 0 .108.04.108.112v.17c.006 0 .012.006.018.006.21-.147.608-.342.955-.342.768 0 .836.506.836 1.08v1.65c.002.068-.022.108-.107.108M20.697 49.287c.28 0 .74.04 1.04.165.092.04.126.085.11.176l-.052.234c-.017.067-.046.096-.148.085-.28-.034-.62-.074-.916-.074-.772 0-.886.626-.886 1.365 0 .745.142 1.33.887 1.33.33 0 .61-.034.917-.073.108-.012.13.017.153.09l.046.217c.023.09-.006.143-.097.183-.28.118-.774.17-1.053.17-1.268 0-1.536-.938-1.536-1.905 0-.973.24-1.963 1.537-1.963M23.137 50.806c-.484 0-.592.308-.592.898 0 .603.108.898.586.898.518 0 .62-.29.62-.898 0-.603-.097-.898-.613-.898m-.006 2.343c-1.142 0-1.216-.837-1.216-1.486 0-.534.12-1.404 1.217-1.404 1.104 0 1.258.733 1.258 1.404 0 .65-.08 1.485-1.257 1.485M28.686 53.104h-.41c-.08 0-.108-.034-.108-.108V51.38c0-.42-.102-.54-.386-.54-.21 0-.552.164-.728.257 0 .056.006.158.006.29v1.608c0 .068-.023.108-.11.108h-.414c-.074 0-.096-.034-.096-.108V51.35c0-.347-.09-.51-.376-.51-.2 0-.517.142-.733.256v1.898c0 .068-.028.108-.107.108h-.41c-.074 0-.102-.034-.102-.108V50.43c0-.074.03-.113.103-.113h.404c.085 0 .114.045.114.113v.164l.006.007c.222-.153.535-.323.848-.335.33 0 .603.067.78.397.283-.21.636-.397 1-.397.75 0 .824.488.824 1.058v1.672c0 .068-.022.11-.102.11M33.144 53.104h-.41c-.08 0-.108-.034-.108-.108V51.38c0-.42-.102-.54-.386-.54-.21 0-.552.164-.728.257 0 .056.006.158.006.29v1.608c0 .068-.023.108-.108.108h-.416c-.074 0-.096-.034-.096-.108V51.35c0-.347-.09-.51-.376-.51-.2 0-.517.142-.733.256v1.898c0 .068-.03.108-.11.108h-.41c-.073 0-.1-.034-.1-.108V50.43c0-.074.027-.113.1-.113h.405c.085 0 .114.045.114.113v.164l.004.007c.222-.153.535-.323.848-.335.33 0 .603.067.78.397.283-.21.636-.397 1-.397.75 0 .824.488.824 1.058v1.672c0 .068-.023.11-.102.11M34.33 52.995c0 .062-.022.108-.102.108h-.404c-.08 0-.114-.034-.114-.108v-2.57c0-.08.034-.107.114-.107h.404c.08 0 .102.045.102.107v2.57zm-.3-3.088c-.297 0-.337-.165-.337-.33 0-.182.063-.324.336-.324.278 0 .334.13.334.324 0 .176-.05.33-.335.33M35.74 53.15c-.283 0-.665-.04-.88-.126-.114-.047-.137-.098-.12-.188l.04-.188c.017-.092.057-.097.148-.085.25.04.614.067.807.067.365 0 .512-.097.512-.324 0-.262-.096-.317-.455-.37-.557-.078-1.046-.198-1.046-.818 0-.563.432-.858 1.07-.858.232 0 .625.034.863.125.096.04.136.085.12.17l-.047.205c-.017.08-.05.09-.153.08-.245-.03-.563-.063-.774-.063-.364 0-.45.103-.45.318 0 .223.138.25.484.308.54.08 1.03.188 1.03.863 0 .667-.563.883-1.15.883M38.123 53.15c-.284 0-.666-.04-.882-.126-.112-.047-.135-.098-.118-.188l.04-.188c.017-.092.057-.097.148-.085.25.04.614.067.807.067.364 0 .512-.097.512-.324 0-.262-.097-.317-.456-.37-.557-.078-1.046-.198-1.046-.818 0-.563.432-.858 1.07-.858.232 0 .625.034.863.125.098.04.138.085.12.17l-.045.205c-.017.08-.05.09-.153.08-.245-.03-.563-.063-.774-.063-.364 0-.45.103-.45.318 0 .223.138.25.484.308.54.08 1.03.188 1.03.863 0 .667-.563.883-1.15.883M40.27 52.995c0 .062-.02.108-.1.108h-.405c-.08 0-.113-.034-.113-.108v-2.57c0-.08.034-.107.113-.107h.404c.08 0 .1.045.1.107v2.57zm-.3-3.088c-.295 0-.334-.165-.334-.33 0-.182.062-.324.335-.324.28 0 .337.13.337.324 0 .176-.052.33-.336.33M41.916 50.806c-.484 0-.592.308-.592.898 0 .603.108.898.586.898.518 0 .62-.29.62-.898 0-.603-.097-.898-.614-.898m-.006 2.343c-1.143 0-1.217-.837-1.217-1.486 0-.534.12-1.404 1.217-1.404 1.103 0 1.257.733 1.257 1.404 0 .65-.08 1.485-1.257 1.485M45.793 53.104h-.41c-.073 0-.106-.034-.106-.108l.004-1.598c0-.336-.077-.558-.407-.558-.23 0-.626.183-.78.257v1.898c0 .068-.028.108-.108.108h-.402c-.08 0-.107-.034-.107-.108V50.43c0-.073.027-.112.107-.112h.402c.08 0 .11.04.11.113v.172c.005 0 .01.005.017.005.21-.147.607-.34.955-.34.768 0 .836.505.836 1.08v1.648c-.002.068-.025.11-.11.11"/></svg>